<?xml version="1.0" standalone="no"?><!DOCTYPE svg PUBLIC "-//W3C//DTD SVG 1.1//EN" "http://www.w3.org/Graphics/SVG/1.1/DTD/svg11.dtd"><svg xmlns:xlink="http://www.w3.org/1999/xlink" version="1.1" style="font-family:'lucida grande', 'lucida sans unicode', arial, helvetica, sans-serif;font-size:12px;" xmlns="http://www.w3.org/2000/svg" width="600" height="600"><desc>Created with Highcharts 4.0.3</desc><defs><clipPath id="highcharts-9"><rect x="0" y="0" width="504" height="382"></rect></clipPath></defs><rect x="0" y="0" width="600" height="600" strokeWidth="0" fill="#FFFFFF" class=" highcharts-background"></rect><g class="highcharts-grid" ></g><g class="highcharts-grid" ><path fill="none" d="M 86 59.5 L 590 59.5" stroke="#C0C0C0" stroke-width="1"  opacity="1"></path><path fill="none" d="M 86 124.5 L 590 124.5" stroke="#C0C0C0" stroke-width="1"  opacity="1"></path><path fill="none" d="M 86 187.5 L 590 187.5" stroke="#C0C0C0" stroke-width="1"  opacity="1"></path><path fill="none" d="M 86 251.5 L 590 251.5" stroke="#C0C0C0" stroke-width="1"  opacity="1"></path><path fill="none" d="M 86 315.5 L 590 315.5" stroke="#C0C0C0" stroke-width="1"  opacity="1"></path><path fill="none" d="M 86 378.5 L 590 378.5" stroke="#C0C0C0" stroke-width="1"  opacity="1"></path><path fill="none" d="M 86 442.5 L 590 442.5" stroke="#C0C0C0" stroke-width="1"  opacity="1"></path></g><g class="highcharts-axis" ><path fill="none" d="M 185.5 442 L 185.5 452" stroke="#C0D0E0" stroke-width="1" opacity="1"></path><path fill="none" d="M 285.5 442 L 285.5 452" stroke="#C0D0E0" stroke-width="1" opacity="1"></path><path fill="none" d="M 384.5 442 L 384.5 452" stroke="#C0D0E0" stroke-width="1" opacity="1"></path><path fill="none" d="M 484.5 442 L 484.5 452" stroke="#C0D0E0" stroke-width="1" opacity="1"></path><path fill="none" d="M 584.5 442 L 584.5 452" stroke="#C0D0E0" stroke-width="1" opacity="1"></path><path fill="none" d="M 85.5 442 L 85.5 452" stroke="#C0D0E0" stroke-width="1" opacity="1"></path><text x="338"  text-anchor="middle" transform="translate(0,0)" class=" highcharts-xaxis-title" style="color:#707070;font-size:20px;fill:#707070;" visibility="visible" y="487.96875"><tspan>Number of input</tspan></text><path fill="none" d="M 86 442.5 L 590 442.5" stroke="#C0D0E0" stroke-width="1"  visibility="visible"></path></g><g class="highcharts-axis" ><text x="33.171875"  text-anchor="middle" transform="translate(0,0) rotate(270 33.171875 251)" class=" highcharts-yaxis-title" style="color:#707070;font-size:20px;fill:#707070;" visibility="visible" y="251">Time</text></g><g class="highcharts-series-group" ><g class="highcharts-series" visibility="visible"  transform="translate(86,60) scale(1 1)" clip-path="url(#highcharts-9)"><path fill="none" d="M 9.98019801980198 382 C 9.98019801980198 382 15.968316831683168 381.7825759458793 19.96039603960396 381.6816666666667 C 23.952475247524752 381.5807573874541 25.948514851485147 381.5591202706037 29.94059405940594 381.4954536039371 C 33.932673267326734 381.43178693727043 35.928712871287125 381.4102534761619 39.92079207920792 381.36333333333334 C 43.91287128712871 381.3164131905048 45.908910891089114 381.2980955023401 49.9009900990099 381.2608528897942 C 53.89306930693069 381.2236102772483 55.88910891089108 381.2080257786003 59.88118811881188 381.1771202706038 C 63.87326732673267 381.14621476260726 65.86930693069307 381.1327494039324 69.86138613861387 381.10632534981164 C 73.85346534653465 381.0799012956909 75.84950495049505 381.0680836283875 79.84158415841584 381.045 C 83.83366336633662 381.0219163716125 85.82970297029703 381.011403296582 89.82178217821782 380.9909072078742 C 93.81386138613861 380.9704111191664 95.80990099009901 380.9609514777556 99.8019801980198 380.94251955646087 C 103.7940594059406 380.92408763516613 105.790099009901 380.9154941252385 109.78217821782178 380.8987476014005 C 113.77425742574258 380.8820010775624 115.77029702970296 380.8741311196055 119.76237623762376 380.85878693727045 C 123.75445544554455 380.8434427549354 125.75049504950493 380.8361856738835 129.74257425742573 380.8220266897251 C 133.73465346534653 380.80786770556665 135.73069306930694 380.80113605567703 139.72277227722773 380.7879920164783 C 143.71485148514853 380.7748479772796 145.7108910891089 380.7685715636937 149.7029702970297 380.7563064937313 C 153.6950495049505 380.744041423769 155.6910891089109 380.7381630996392 159.68316831683168 380.7266666666667 C 163.67524752475248 380.71517023369415 165.67128712871286 380.7096428872938 169.66336633663366 380.6988243288686 C 173.65544554455445 380.68800577044345 175.65148514851484 380.6827901253372 179.64356435643563 380.6725738745409 C 183.63564356435646 380.6623576237446 185.63168316831684 380.65742060516976 189.62376237623764 380.6477430748871 C 193.61584158415843 380.6380655446044 195.61188118811884 380.63337904735516 199.6039603960396 380.62418622312754 C 203.59603960396038 380.61499339889986 205.5920792079208 380.6105333447608 209.58415841584159 380.60177895374875 C 213.57623762376238 380.5930245627367 215.57227722772276 380.58877017001913 219.56435643564356 380.5804142680671 C 223.55643564356438 380.5720583661151 225.55247524752477 380.56799157681456 229.54455445544554 380.55999944398854 C 233.53663366336633 380.5520073111625 235.53267326732671 380.54811233681716 239.5247524752475 380.5404536039371 C 243.5168316831683 380.5327948710571 245.5128712871287 380.5290578290975 249.5049504950495 380.5217057795884 C 253.4970297029703 380.51435373007934 255.49306930693064 380.5107623499472 259.48514851485146 380.50369335639175 C 263.4772277227722 380.49662436283637 265.47326732673264 380.49316774646064 269.46534653465346 380.4863608118113 C 273.4574257425743 380.47955387716195 275.4534653465347 380.476222302197 279.44554455445547 380.469658683145 C 283.4376237623763 380.4630950640929 285.43366336633665 380.45987982110046 289.4257425742574 380.45354271655106 C 293.41782178217824 380.44720561200165 295.4138613861386 380.4440988688028 299.4059405940594 380.437973160398 C 303.3980198019802 380.4318474519931 305.3940594059406 380.4288421399397 309.38613861386136 380.42291417452685 C 313.3782178217822 380.41698620911393 315.37425742574254 380.41407592717127 319.36633663366337 380.40833333333336 C 323.35841584158413 380.40259073949545 325.3544554455446 380.3997696728972 329.34653465346537 380.39420120533754 C 333.33861386138614 380.3886327377779 335.33465346534655 380.3858955886816 339.3267326732673 380.3804909955353 C 343.31881188118814 380.37508640238894 345.31485148514855 380.3724283304714 349.3069306930693 380.36717823960583 C 353.29900990099014 380.3619281487403 355.2950495049505 380.3593447200737 359.28712871287127 380.3542405412075 C 363.2792079207921 380.34913636234126 365.27524752475244 380.3466235052055 369.26732673267327 380.34165734527477 C 373.2594059405941 380.336691185344 375.25544554455445 380.3342451518763 379.2475247524753 380.3294097415538 C 383.23960396039604 380.3245743312313 385.23564356435645 380.32219166401404 389.2277227722772 380.3174802936622 C 393.219801980198 380.3127689233103 395.21584158415845 380.310446426154 399.2079207920792 380.3058528897942 C 403.2 380.3012593534344 405.1960396039604 380.29899406573895 409.18811881188117 380.29451261186324 C 413.180198019802 380.29003115798747 415.1762376237624 380.2878203321708 419.16831683168317 380.2834456204154 C 423.160396039604 380.27907090866006 425.15643564356435 380.27691199022286 429.1485148514852 380.2726390530865 C 433.1405940594059 380.2683661159502 435.1366336633664 380.26625672581736 439.1287128712871 380.2620809347338 C 443.12079207920794 380.25790514365013 445.1168316831683 380.25584306248413 449.1089108910891 380.2517600976684 C 453.1009900990099 380.2476771328527 455.0970297029703 380.245660287079 459.08910891089107 380.24166611065516 C 463.08118811881184 380.23767193423134 465.0772277227723 380.23569838355957 469.0693069306931 380.23178921554927 C 473.06138613861384 380.227880047539 475.0574257425742 380.2259479737889 479.049504950495 380.22212027060374 C 483.04158415841584 380.21829256741853 485.03762376237626 380.2164002644931 489.029702970297 380.21265069962334 C 493.02178217821785 380.20890113475355 499.009900990099 380.20337244625506 499.009900990099 380.20337244625506" stroke="#7cb5ec" stroke-width="2"  stroke-linejoin="round" stroke-linecap="round"></path></g><g class="highcharts-markers" visibility="visible"  transform="translate(86,60) scale(1 1)" clip-path="none"><path fill="#7cb5ec" d="M 499 376.20337244625506 C 504.328 376.20337244625506 504.328 384.20337244625506 499 384.20337244625506 C 493.672 384.20337244625506 493.672 376.20337244625506 499 376.20337244625506 Z"></path><path fill="#7cb5ec" d="M 489 376.21265069962334 C 494.328 376.21265069962334 494.328 384.21265069962334 489 384.21265069962334 C 483.672 384.21265069962334 483.672 376.21265069962334 489 376.21265069962334 Z"></path><path fill="#7cb5ec" d="M 479 376.22212027060374 C 484.328 376.22212027060374 484.328 384.22212027060374 479 384.22212027060374 C 473.672 384.22212027060374 473.672 376.22212027060374 479 376.22212027060374 Z"></path><path fill="#7cb5ec" d="M 469 376.23178921554927 C 474.328 376.23178921554927 474.328 384.23178921554927 469 384.23178921554927 C 463.672 384.23178921554927 463.672 376.23178921554927 469 376.23178921554927 Z"></path><path fill="#7cb5ec" d="M 459 376.24166611065516 C 464.328 376.24166611065516 464.328 384.24166611065516 459 384.24166611065516 C 453.672 384.24166611065516 453.672 376.24166611065516 459 376.24166611065516 Z"></path><path fill="#7cb5ec" d="M 449 376.2517600976684 C 454.328 376.2517600976684 454.328 384.2517600976684 449 384.2517600976684 C 443.672 384.2517600976684 443.672 376.2517600976684 449 376.2517600976684 Z"></path><path fill="#7cb5ec" d="M 439 376.2620809347338 C 444.328 376.2620809347338 444.328 384.2620809347338 439 384.2620809347338 C 433.672 384.2620809347338 433.672 376.2620809347338 439 376.2620809347338 Z"></path><path fill="#7cb5ec" d="M 429 376.2726390530865 C 434.328 376.2726390530865 434.328 384.2726390530865 429 384.2726390530865 C 423.672 384.2726390530865 423.672 376.2726390530865 429 376.2726390530865 Z"></path><path fill="#7cb5ec" d="M 419 376.2834456204154 C 424.328 376.2834456204154 424.328 384.2834456204154 419 384.2834456204154 C 413.672 384.2834456204154 413.672 376.2834456204154 419 376.2834456204154 Z"></path><path fill="#7cb5ec" d="M 409 376.29451261186324 C 414.328 376.29451261186324 414.328 384.29451261186324 409 384.29451261186324 C 403.672 384.29451261186324 403.672 376.29451261186324 409 376.29451261186324 Z"></path><path fill="#7cb5ec" d="M 399 376.3058528897942 C 404.328 376.3058528897942 404.328 384.3058528897942 399 384.3058528897942 C 393.672 384.3058528897942 393.672 376.3058528897942 399 376.3058528897942 Z"></path><path fill="#7cb5ec" d="M 389 376.3174802936622 C 394.328 376.3174802936622 394.328 384.3174802936622 389 384.3174802936622 C 383.672 384.3174802936622 383.672 376.3174802936622 389 376.3174802936622 Z"></path><path fill="#7cb5ec" d="M 379 376.3294097415538 C 384.328 376.3294097415538 384.328 384.3294097415538 379 384.3294097415538 C 373.672 384.3294097415538 373.672 376.3294097415538 379 376.3294097415538 Z"></path><path fill="#7cb5ec" d="M 369 376.34165734527477 C 374.328 376.34165734527477 374.328 384.34165734527477 369 384.34165734527477 C 363.672 384.34165734527477 363.672 376.34165734527477 369 376.34165734527477 Z"></path><path fill="#7cb5ec" d="M 359 376.3542405412075 C 364.328 376.3542405412075 364.328 384.3542405412075 359 384.3542405412075 C 353.672 384.3542405412075 353.672 376.3542405412075 359 376.3542405412075 Z"></path><path fill="#7cb5ec" d="M 349 376.36717823960583 C 354.328 376.36717823960583 354.328 384.36717823960583 349 384.36717823960583 C 343.672 384.36717823960583 343.672 376.36717823960583 349 376.36717823960583 Z"></path><path fill="#7cb5ec" d="M 339 376.3804909955353 C 344.328 376.3804909955353 344.328 384.3804909955353 339 384.3804909955353 C 333.672 384.3804909955353 333.672 376.3804909955353 339 376.3804909955353 Z"></path><path fill="#7cb5ec" d="M 329 376.39420120533754 C 334.328 376.39420120533754 334.328 384.39420120533754 329 384.39420120533754 C 323.672 384.39420120533754 323.672 376.39420120533754 329 376.39420120533754 Z"></path><path fill="#7cb5ec" d="M 319 376.40833333333336 C 324.328 376.40833333333336 324.328 384.40833333333336 319 384.40833333333336 C 313.672 384.40833333333336 313.672 376.40833333333336 319 376.40833333333336 Z"></path><path fill="#7cb5ec" d="M 309 376.42291417452685 C 314.328 376.42291417452685 314.328 384.42291417452685 309 384.42291417452685 C 303.672 384.42291417452685 303.672 376.42291417452685 309 376.42291417452685 Z"></path><path fill="#7cb5ec" d="M 299 376.437973160398 C 304.328 376.437973160398 304.328 384.437973160398 299 384.437973160398 C 293.672 384.437973160398 293.672 376.437973160398 299 376.437973160398 Z"></path><path fill="#7cb5ec" d="M 289 376.45354271655106 C 294.328 376.45354271655106 294.328 384.45354271655106 289 384.45354271655106 C 283.672 384.45354271655106 283.672 376.45354271655106 289 376.45354271655106 Z"></path><path fill="#7cb5ec" d="M 279 376.469658683145 C 284.328 376.469658683145 284.328 384.469658683145 279 384.469658683145 C 273.672 384.469658683145 273.672 376.469658683145 279 376.469658683145 Z"></path><path fill="#7cb5ec" d="M 269 376.4863608118113 C 274.328 376.4863608118113 274.328 384.4863608118113 269 384.4863608118113 C 263.672 384.4863608118113 263.672 376.4863608118113 269 376.4863608118113 Z"></path><path fill="#7cb5ec" d="M 259 376.50369335639175 C 264.328 376.50369335639175 264.328 384.50369335639175 259 384.50369335639175 C 253.672 384.50369335639175 253.672 376.50369335639175 259 376.50369335639175 Z"></path><path fill="#7cb5ec" d="M 249 376.5217057795884 C 254.328 376.5217057795884 254.328 384.5217057795884 249 384.5217057795884 C 243.672 384.5217057795884 243.672 376.5217057795884 249 376.5217057795884 Z"></path><path fill="#7cb5ec" d="M 239 376.5404536039371 C 244.328 376.5404536039371 244.328 384.5404536039371 239 384.5404536039371 C 233.672 384.5404536039371 233.672 376.5404536039371 239 376.5404536039371 Z"></path><path fill="#7cb5ec" d="M 229 376.55999944398854 C 234.328 376.55999944398854 234.328 384.55999944398854 229 384.55999944398854 C 223.672 384.55999944398854 223.672 376.55999944398854 229 376.55999944398854 Z"></path><path fill="#7cb5ec" d="M 219 376.5804142680671 C 224.328 376.5804142680671 224.328 384.5804142680671 219 384.5804142680671 C 213.672 384.5804142680671 213.672 376.5804142680671 219 376.5804142680671 Z"></path><path fill="#7cb5ec" d="M 209 376.60177895374875 C 214.328 376.60177895374875 214.328 384.60177895374875 209 384.60177895374875 C 203.672 384.60177895374875 203.672 376.60177895374875 209 376.60177895374875 Z"></path><path fill="#7cb5ec" d="M 199 376.62418622312754 C 204.328 376.62418622312754 204.328 384.62418622312754 199 384.62418622312754 C 193.672 384.62418622312754 193.672 376.62418622312754 199 376.62418622312754 Z"></path><path fill="#7cb5ec" d="M 189 376.6477430748871 C 194.328 376.6477430748871 194.328 384.6477430748871 189 384.6477430748871 C 183.672 384.6477430748871 183.672 376.6477430748871 189 376.6477430748871 Z"></path><path fill="#7cb5ec" d="M 179 376.6725738745409 C 184.328 376.6725738745409 184.328 384.6725738745409 179 384.6725738745409 C 173.672 384.6725738745409 173.672 376.6725738745409 179 376.6725738745409 Z"></path><path fill="#7cb5ec" d="M 169 376.6988243288686 C 174.328 376.6988243288686 174.328 384.6988243288686 169 384.6988243288686 C 163.672 384.6988243288686 163.672 376.6988243288686 169 376.6988243288686 Z"></path><path fill="#7cb5ec" d="M 159 376.7266666666667 C 164.328 376.7266666666667 164.328 384.7266666666667 159 384.7266666666667 C 153.672 384.7266666666667 153.672 376.7266666666667 159 376.7266666666667 Z"></path><path fill="#7cb5ec" d="M 149 376.7563064937313 C 154.328 376.7563064937313 154.328 384.7563064937313 149 384.7563064937313 C 143.672 384.7563064937313 143.672 376.7563064937313 149 376.7563064937313 Z"></path><path fill="#7cb5ec" d="M 139 376.7879920164783 C 144.328 376.7879920164783 144.328 384.7879920164783 139 384.7879920164783 C 133.672 384.7879920164783 133.672 376.7879920164783 139 376.7879920164783 Z"></path><path fill="#7cb5ec" d="M 129 376.8220266897251 C 134.328 376.8220266897251 134.328 384.8220266897251 129 384.8220266897251 C 123.672 384.8220266897251 123.672 376.8220266897251 129 376.8220266897251 Z"></path><path fill="#7cb5ec" d="M 119 376.85878693727045 C 124.328 376.85878693727045 124.328 384.85878693727045 119 384.85878693727045 C 113.672 384.85878693727045 113.672 376.85878693727045 119 376.85878693727045 Z"></path><path fill="#7cb5ec" d="M 109 376.8987476014005 C 114.328 376.8987476014005 114.328 384.8987476014005 109 384.8987476014005 C 103.672 384.8987476014005 103.672 376.8987476014005 109 376.8987476014005 Z"></path><path fill="#7cb5ec" d="M 99 376.94251955646087 C 104.328 376.94251955646087 104.328 384.94251955646087 99 384.94251955646087 C 93.672 384.94251955646087 93.672 376.94251955646087 99 376.94251955646087 Z"></path><path fill="#7cb5ec" d="M 89 376.9909072078742 C 94.328 376.9909072078742 94.328 384.9909072078742 89 384.9909072078742 C 83.672 384.9909072078742 83.672 376.9909072078742 89 376.9909072078742 Z"></path><path fill="#7cb5ec" d="M 79 377.045 C 84.328 377.045 84.328 385.045 79 385.045 C 73.672 385.045 73.672 377.045 79 377.045 Z"></path><path fill="#7cb5ec" d="M 69 377.10632534981164 C 74.328 377.10632534981164 74.328 385.10632534981164 69 385.10632534981164 C 63.672 385.10632534981164 63.672 377.10632534981164 69 377.10632534981164 Z"></path><path fill="#7cb5ec" d="M 59 377.1771202706038 C 64.328 377.1771202706038 64.328 385.1771202706038 59 385.1771202706038 C 53.672 385.1771202706038 53.672 377.1771202706038 59 377.1771202706038 Z"></path><path fill="#7cb5ec" d="M 49 377.2608528897942 C 54.328 377.2608528897942 54.328 385.2608528897942 49 385.2608528897942 C 43.672 385.2608528897942 43.672 377.2608528897942 49 377.2608528897942 Z"></path><path fill="#7cb5ec" d="M 39 377.36333333333334 C 44.328 377.36333333333334 44.328 385.36333333333334 39 385.36333333333334 C 33.672 385.36333333333334 33.672 377.36333333333334 39 377.36333333333334 Z"></path><path fill="#7cb5ec" d="M 29 377.4954536039371 C 34.328 377.4954536039371 34.328 385.4954536039371 29 385.4954536039371 C 23.672 385.4954536039371 23.672 377.4954536039371 29 377.4954536039371 Z"></path><path fill="#7cb5ec" d="M 19 377.6816666666667 C 24.328 377.6816666666667 24.328 385.6816666666667 19 385.6816666666667 C 13.672 385.6816666666667 13.672 377.6816666666667 19 377.6816666666667 Z"></path><path fill="#7cb5ec" d="M 9 378 C 14.328 378 14.328 386 9 386 C 3.6719999999999997 386 3.6719999999999997 378 9 378 Z"></path></g><g class="highcharts-series" visibility="visible"  transform="translate(86,60) scale(1 1)" clip-path="url(#highcharts-9)"><path fill="none" d="M 0 382 C 0 382 5.988118811881188 381.809 9.98019801980198 381.6816666666667 C 13.97227722772277 381.5543333333334 15.968316831683168 381.49066666666664 19.96039603960396 381.36333333333334 C 23.952475247524752 381.236 25.948514851485147 381.1723333333333 29.94059405940594 381.045 C 33.932673267326734 380.91766666666666 35.928712871287125 380.854 39.92079207920792 380.7266666666667 C 43.91287128712871 380.5993333333334 45.908910891089114 380.5356666666667 49.9009900990099 380.40833333333336 C 53.89306930693069 380.28100000000006 55.88910891089108 380.21733333333333 59.88118811881188 380.09 C 63.87326732673267 379.9626666666667 65.86930693069307 379.899 69.86138613861387 379.77166666666665 C 73.85346534653465 379.64433333333335 75.84950495049505 379.5806666666667 79.84158415841584 379.4533333333333 C 83.83366336633662 379.326 85.82970297029703 379.2623333333333 89.82178217821782 379.135 C 93.81386138613861 379.0076666666667 95.80990099009901 378.944 99.8019801980198 378.81666666666666 C 103.7940594059406 378.68933333333337 105.790099009901 378.62566666666663 109.78217821782178 378.49833333333333 C 113.77425742574258 378.371 115.77029702970296 378.30733333333336 119.76237623762376 378.18 C 123.75445544554455 378.0526666666667 125.75049504950493 377.98900000000003 129.74257425742573 377.8616666666667 C 133.73465346534653 377.7343333333333 135.73069306930694 377.6706666666667 139.72277227722773 377.54333333333335 C 143.71485148514853 377.41600000000005 145.7108910891089 377.3523333333334 149.7029702970297 377.225 C 153.6950495049505 377.09766666666667 155.6910891089109 377.034 159.68316831683168 376.90666666666664 C 163.67524752475248 376.7793333333333 165.67128712871286 376.71566666666666 169.66336633663366 376.5883333333333 C 173.65544554455445 376.461 175.65148514851484 376.39733333333334 179.64356435643563 376.27 C 183.63564356435646 376.1426666666666 185.63168316831684 376.079 189.62376237623764 375.95166666666665 C 193.61584158415843 375.82433333333336 195.61188118811884 375.7606666666666 199.6039603960396 375.6333333333333 C 203.59603960396038 375.506 205.5920792079208 375.44233333333335 209.58415841584159 375.315 C 213.57623762376238 375.1876666666667 215.57227722772276 375.12399999999997 219.56435643564356 374.99666666666667 C 223.55643564356438 374.8693333333334 225.55247524752477 374.80566666666664 229.54455445544554 374.67833333333334 C 233.53663366336633 374.551 235.53267326732671 374.4873333333333 239.5247524752475 374.36 C 243.5168316831683 374.23266666666666 245.5128712871287 374.16900000000004 249.5049504950495 374.0416666666667 C 253.4970297029703 373.9143333333334 255.49306930693064 373.8506666666667 259.48514851485146 373.72333333333336 C 263.4772277227722 373.596 265.47326732673264 373.53233333333327 269.46534653465346 373.405 C 273.4574257425743 373.2776666666666 275.4534653465347 373.21399999999994 279.44554455445547 373.08666666666664 C 283.4376237623763 372.9593333333333 285.43366336633665 372.8956666666666 289.4257425742574 372.7683333333333 C 293.41782178217824 372.64099999999996 295.4138613861386 372.57733333333334 299.4059405940594 372.45 C 303.3980198019802 372.3226666666667 305.3940594059406 372.259 309.38613861386136 372.13166666666666 C 313.3782178217822 372.0043333333333 315.37425742574254 371.9406666666667 319.36633663366337 371.81333333333333 C 323.35841584158413 371.68600000000004 325.3544554455446 371.6223333333333 329.34653465346537 371.495 C 333.33861386138614 371.36766666666665 335.33465346534655 371.304 339.3267326732673 371.1766666666667 C 343.31881188118814 371.0493333333333 345.31485148514855 370.98566666666665 349.3069306930693 370.85833333333335 C 353.29900990099014 370.73100000000005 355.2950495049505 370.6673333333333 359.28712871287127 370.54 C 363.2792079207921 370.41266666666667 365.27524752475244 370.349 369.26732673267327 370.2216666666667 C 373.2594059405941 370.09433333333334 375.25544554455445 370.03066666666666 379.2475247524753 369.9033333333333 C 383.23960396039604 369.776 385.23564356435645 369.7123333333333 389.2277227722772 369.585 C 393.219801980198 369.4576666666666 395.21584158415845 369.39399999999995 399.2079207920792 369.26666666666665 C 403.2 369.13933333333335 405.1960396039604 369.0756666666666 409.18811881188117 368.9483333333333 C 413.180198019802 368.82099999999997 415.1762376237624 368.7573333333333 419.16831683168317 368.63 C 423.160396039604 368.50266666666664 425.15643564356435 368.439 429.1485148514852 368.31166666666667 C 433.1405940594059 368.18433333333337 435.1366336633664 368.1206666666667 439.1287128712871 367.99333333333334 C 443.12079207920794 367.866 445.1168316831683 367.80233333333337 449.1089108910891 367.675 C 453.1009900990099 367.5476666666667 455.0970297029703 367.484 459.08910891089107 367.3566666666667 C 463.08118811881184 367.22933333333333 465.0772277227723 367.16566666666665 469.0693069306931 367.03833333333336 C 473.06138613861384 366.911 475.0574257425742 366.8473333333333 479.049504950495 366.72 C 483.04158415841584 366.5926666666667 485.03762376237626 366.529 489.029702970297 366.40166666666664 C 493.02178217821785 366.2743333333333 499.009900990099 366.0833333333333 499.009900990099 366.0833333333333" stroke="#434348" stroke-width="2"  stroke-linejoin="round" stroke-linecap="round"></path></g><g class="highcharts-markers" visibility="visible"  transform="translate(86,60) scale(1 1)" clip-path="none"><path fill="#434348" d="M 499 362.0833333333333 L 503 366.0833333333333 499 370.0833333333333 495 366.0833333333333 Z"></path><path fill="#434348" d="M 489 362.40166666666664 L 493 366.40166666666664 489 370.40166666666664 485 366.40166666666664 Z"></path><path fill="#434348" d="M 479 362.72 L 483 366.72 479 370.72 475 366.72 Z"></path><path fill="#434348" d="M 469 363.03833333333336 L 473 367.03833333333336 469 371.03833333333336 465 367.03833333333336 Z"></path><path fill="#434348" d="M 459 363.3566666666667 L 463 367.3566666666667 459 371.3566666666667 455 367.3566666666667 Z"></path><path fill="#434348" d="M 449 363.675 L 453 367.675 449 371.675 445 367.675 Z"></path><path fill="#434348" d="M 439 363.99333333333334 L 443 367.99333333333334 439 371.99333333333334 435 367.99333333333334 Z"></path><path fill="#434348" d="M 429 364.31166666666667 L 433 368.31166666666667 429 372.31166666666667 425 368.31166666666667 Z"></path><path fill="#434348" d="M 419 364.63 L 423 368.63 419 372.63 415 368.63 Z"></path><path fill="#434348" d="M 409 364.9483333333333 L 413 368.9483333333333 409 372.9483333333333 405 368.9483333333333 Z"></path><path fill="#434348" d="M 399 365.26666666666665 L 403 369.26666666666665 399 373.26666666666665 395 369.26666666666665 Z"></path><path fill="#434348" d="M 389 365.585 L 393 369.585 389 373.585 385 369.585 Z"></path><path fill="#434348" d="M 379 365.9033333333333 L 383 369.9033333333333 379 373.9033333333333 375 369.9033333333333 Z"></path><path fill="#434348" d="M 369 366.2216666666667 L 373 370.2216666666667 369 374.2216666666667 365 370.2216666666667 Z"></path><path fill="#434348" d="M 359 366.54 L 363 370.54 359 374.54 355 370.54 Z"></path><path fill="#434348" d="M 349 366.85833333333335 L 353 370.85833333333335 349 374.85833333333335 345 370.85833333333335 Z"></path><path fill="#434348" d="M 339 367.1766666666667 L 343 371.1766666666667 339 375.1766666666667 335 371.1766666666667 Z"></path><path fill="#434348" d="M 329 367.495 L 333 371.495 329 375.495 325 371.495 Z"></path><path fill="#434348" d="M 319 367.81333333333333 L 323 371.81333333333333 319 375.81333333333333 315 371.81333333333333 Z"></path><path fill="#434348" d="M 309 368.13166666666666 L 313 372.13166666666666 309 376.13166666666666 305 372.13166666666666 Z"></path><path fill="#434348" d="M 299 368.45 L 303 372.45 299 376.45 295 372.45 Z"></path><path fill="#434348" d="M 289 368.7683333333333 L 293 372.7683333333333 289 376.7683333333333 285 372.7683333333333 Z"></path><path fill="#434348" d="M 279 369.08666666666664 L 283 373.08666666666664 279 377.08666666666664 275 373.08666666666664 Z"></path><path fill="#434348" d="M 269 369.405 L 273 373.405 269 377.405 265 373.405 Z"></path><path fill="#434348" d="M 259 369.72333333333336 L 263 373.72333333333336 259 377.72333333333336 255 373.72333333333336 Z"></path><path fill="#434348" d="M 249 370.0416666666667 L 253 374.0416666666667 249 378.0416666666667 245 374.0416666666667 Z"></path><path fill="#434348" d="M 239 370.36 L 243 374.36 239 378.36 235 374.36 Z"></path><path fill="#434348" d="M 229 370.67833333333334 L 233 374.67833333333334 229 378.67833333333334 225 374.67833333333334 Z"></path><path fill="#434348" d="M 219 370.99666666666667 L 223 374.99666666666667 219 378.99666666666667 215 374.99666666666667 Z"></path><path fill="#434348" d="M 209 371.315 L 213 375.315 209 379.315 205 375.315 Z"></path><path fill="#434348" d="M 199 371.6333333333333 L 203 375.6333333333333 199 379.6333333333333 195 375.6333333333333 Z"></path><path fill="#434348" d="M 189 371.95166666666665 L 193 375.95166666666665 189 379.95166666666665 185 375.95166666666665 Z"></path><path fill="#434348" d="M 179 372.27 L 183 376.27 179 380.27 175 376.27 Z"></path><path fill="#434348" d="M 169 372.5883333333333 L 173 376.5883333333333 169 380.5883333333333 165 376.5883333333333 Z"></path><path fill="#434348" d="M 159 372.90666666666664 L 163 376.90666666666664 159 380.90666666666664 155 376.90666666666664 Z"></path><path fill="#434348" d="M 149 373.225 L 153 377.225 149 381.225 145 377.225 Z"></path><path fill="#434348" d="M 139 373.54333333333335 L 143 377.54333333333335 139 381.54333333333335 135 377.54333333333335 Z"></path><path fill="#434348" d="M 129 373.8616666666667 L 133 377.8616666666667 129 381.8616666666667 125 377.8616666666667 Z"></path><path fill="#434348" d="M 119 374.18 L 123 378.18 119 382.18 115 378.18 Z"></path><path fill="#434348" d="M 109 374.49833333333333 L 113 378.49833333333333 109 382.49833333333333 105 378.49833333333333 Z"></path><path fill="#434348" d="M 99 374.81666666666666 L 103 378.81666666666666 99 382.81666666666666 95 378.81666666666666 Z"></path><path fill="#434348" d="M 89 375.135 L 93 379.135 89 383.135 85 379.135 Z"></path><path fill="#434348" d="M 79 375.4533333333333 L 83 379.4533333333333 79 383.4533333333333 75 379.4533333333333 Z"></path><path fill="#434348" d="M 69 375.77166666666665 L 73 379.77166666666665 69 383.77166666666665 65 379.77166666666665 Z"></path><path fill="#434348" d="M 59 376.09 L 63 380.09 59 384.09 55 380.09 Z"></path><path fill="#434348" d="M 49 376.40833333333336 L 53 380.40833333333336 49 384.40833333333336 45 380.40833333333336 Z"></path><path fill="#434348" d="M 39 376.7266666666667 L 43 380.7266666666667 39 384.7266666666667 35 380.7266666666667 Z"></path><path fill="#434348" d="M 29 377.045 L 33 381.045 29 385.045 25 381.045 Z"></path><path fill="#434348" d="M 19 377.36333333333334 L 23 381.36333333333334 19 385.36333333333334 15 381.36333333333334 Z"></path><path fill="#434348" d="M 9 377.6816666666667 L 13 381.6816666666667 9 385.6816666666667 5 381.6816666666667 Z"></path><path fill="#434348" d="M 0 378 L 4 382 0 386 -4 382 Z"></path></g><g class="highcharts-series" visibility="visible"  transform="translate(86,60) scale(1 1)" clip-path="url(#highcharts-9)"><path fill="none" d="M 9.98019801980198 382 C 9.98019801980198 382 15.968316831683168 381.6660611709711 19.96039603960396 381.36333333333334 C 23.952475247524752 381.0606054956956 25.948514851485147 380.8683608118113 29.94059405940594 380.4863608118113 C 33.932673267326734 380.1043608118113 35.928712871287125 379.8897526059014 39.92079207920792 379.4533333333333 C 43.91287128712871 379.01691406076526 45.908910891089114 378.7823867909131 49.9009900990099 378.30426444897097 C 53.89306930693069 377.82614210702883 55.88910891089108 377.5747190236804 59.88118811881188 377.06272162362256 C 63.87326732673267 376.5507242235647 65.86930693069307 376.2848217734062 69.86138613861387 375.74427744868166 C 73.85346534653465 375.20373312395714 75.84950495049505 374.92522251556284 79.84158415841584 374.36 C 83.83366336633662 373.79477748443725 85.82970297029703 373.5051257579461 89.82178217821782 372.91816487086777 C 93.81386138613861 372.33120398378946 95.80990099009901 372.0315838157011 99.8019801980198 371.42519556460854 C 103.7940594059406 370.818807313516 105.790099009901 370.5101740788777 109.78217821782178 369.8862236154051 C 113.77425742574258 369.2622731519324 115.77029702970296 368.945418577041 119.76237623762376 368.3054432472452 C 123.75445544554455 367.6654679174494 125.75049504950493 367.34105796973586 129.74257425742573 366.68634696642613 C 133.73465346534653 366.0316359631164 135.73069306930694 365.70023814278795 139.72277227722773 365.0318882306966 C 143.71485148514853 364.36353831860526 145.7108910891089 364.02564171877526 149.7029702970297 363.3445974059693 C 153.6950495049505 362.66355309316333 155.6910891089109 362.31958342970717 159.68316831683168 361.62666666666667 C 163.67524752475248 360.93374990362616 165.67128712871286 360.5840809757531 169.66336633663366 359.8800135907669 C 173.65544554455445 359.17594620578075 175.65148514851484 358.8209087753179 179.64356435643563 358.1063297417356 C 183.63564356435646 357.39175070815327 185.63168316831684 357.0316394786924 189.62376237623764 356.3071184228554 C 193.61584158415843 355.58259736701837 195.61188118811884 355.21767654137676 199.6039603960396 354.48372446255047 C 203.59603960396038 353.7497723837242 205.5920792079208 353.38028014173875 209.58415841584159 352.637358028724 C 213.57623762376238 351.8944359157093 215.57227722772276 351.52058806087445 219.56435643564356 350.7691138974768 C 223.55643564356438 350.0176397340791 225.55247524752477 349.6396326923332 229.54455445544554 348.8799872117359 C 233.53663366336633 348.1203417311386 235.53267326732671 347.73835503889563 239.5247524752475 346.97088649449034 C 243.5168316831683 346.20341795008505 245.5128712871287 345.8176163353704 249.5049504950495 345.04264448970946 C 253.4970297029703 344.2676726440485 255.49306930693064 343.87820778034643 259.48514851485146 343.09602726618556 C 263.4772277227722 342.3138467520247 265.47326732673264 341.92085874653014 269.46534653465346 341.131741918905 C 273.4574257425743 340.34262509127984 275.4534653465347 339.94624375584476 279.44554455445547 339.1504431280599 C 283.4376237623763 338.354642500275 285.43366336633665 337.95498844320485 289.4257425742574 337.1527387799806 C 293.41782178217824 336.35048911675636 295.4138613861386 335.9476746858684 299.4059405940594 335.13919481193864 C 303.3980198019802 334.33071493800895 305.3940594059406 333.9248450393866 309.38613861386136 333.1103394103322 C 313.3782178217822 332.2958337812778 315.37425742574254 331.88700659350525 319.36633663366337 331.06666666666666 C 323.35841584158413 330.24632673982813 325.3544554455446 329.8346343398327 329.34653465346537 329.00863977613943 C 333.33861386138614 328.18264521244623 335.33465346534655 327.76817412618743 339.3267326732673 326.9366938482005 C 343.31881188118814 326.10521357021355 345.31485148514855 325.6880452591507 349.3069306930693 324.85123838620484 C 353.29900990099014 324.01443151325896 355.2950495049505 323.5946428056787 359.28712871287127 322.7526594834711 C 363.2792079207921 321.91067616126355 365.27524752475244 321.4883396360524 369.26732673267327 320.641321775167 C 373.2594059405941 319.7943039142816 375.25544554455445 319.3694882435125 379.2475247524753 318.51757017904407 C 383.23960396039604 317.6656521145757 385.23564356435645 317.2384223702805 389.2277227722772 316.3817314528252 C 393.219801980198 315.5250405353699 395.21584158415845 315.09545846505404 399.2079207920792 314.2341155917676 C 403.2 313.3727727184812 405.1960396039604 312.9408969932569 409.18811881188117 312.07501708639296 C 413.180198019802 311.209137179529 415.1762376237624 310.7750236181827 419.16831683168317 309.90471605744796 C 423.160396039604 309.03440849671324 425.15643564356435 308.59811026855164 429.1485148514852 307.72347928271944 C 433.1405940594059 306.84884829688724 435.1366336633664 306.4104161058153 439.1287128712871 305.5315611282869 C 443.12079207920794 304.6527061507585 445.1168316831683 304.21218840270706 449.1089108910891 303.3292043950774 C 453.1009900990099 302.44622038744774 455.0970297029703 302.0036633429907 459.08910891089107 301.1166410901385 C 463.08118811881184 300.2296188372863 465.0772277227723 299.78506675104796 469.0693069306931 298.89409313081643 C 473.06138613861384 298.00311951058484 475.0574257425742 297.5566147588354 479.049504950495 296.6617729889807 C 483.04158415841584 295.76693121912604 489.029702970297 294.419884281543 489.029702970297 294.419884281543" stroke="#90ed7d" stroke-width="2"  stroke-linejoin="round" stroke-linecap="round"></path></g><g class="highcharts-markers" visibility="visible"  transform="translate(86,60) scale(1 1)" clip-path="none"><path fill="#90ed7d" d="M 485 290.419884281543 L 493 290.419884281543 493 298.419884281543 485 298.419884281543 Z"></path><path fill="#90ed7d" d="M 475 292.6617729889807 L 483 292.6617729889807 483 300.6617729889807 475 300.6617729889807 Z"></path><path fill="#90ed7d" d="M 465 294.89409313081643 L 473 294.89409313081643 473 302.89409313081643 465 302.89409313081643 Z"></path><path fill="#90ed7d" d="M 455 297.1166410901385 L 463 297.1166410901385 463 305.1166410901385 455 305.1166410901385 Z"></path><path fill="#90ed7d" d="M 445 299.3292043950774 L 453 299.3292043950774 453 307.3292043950774 445 307.3292043950774 Z"></path><path fill="#90ed7d" d="M 435 301.5315611282869 L 443 301.5315611282869 443 309.5315611282869 435 309.5315611282869 Z"></path><path fill="#90ed7d" d="M 425 303.72347928271944 L 433 303.72347928271944 433 311.72347928271944 425 311.72347928271944 Z"></path><path fill="#90ed7d" d="M 415 305.90471605744796 L 423 305.90471605744796 423 313.90471605744796 415 313.90471605744796 Z"></path><path fill="#90ed7d" d="M 405 308.07501708639296 L 413 308.07501708639296 413 316.07501708639296 405 316.07501708639296 Z"></path><path fill="#90ed7d" d="M 395 310.2341155917676 L 403 310.2341155917676 403 318.2341155917676 395 318.2341155917676 Z"></path><path fill="#90ed7d" d="M 385 312.3817314528252 L 393 312.3817314528252 393 320.3817314528252 385 320.3817314528252 Z"></path><path fill="#90ed7d" d="M 375 314.51757017904407 L 383 314.51757017904407 383 322.51757017904407 375 322.51757017904407 Z"></path><path fill="#90ed7d" d="M 365 316.641321775167 L 373 316.641321775167 373 324.641321775167 365 324.641321775167 Z"></path><path fill="#90ed7d" d="M 355 318.7526594834711 L 363 318.7526594834711 363 326.7526594834711 355 326.7526594834711 Z"></path><path fill="#90ed7d" d="M 345 320.85123838620484 L 353 320.85123838620484 353 328.85123838620484 345 328.85123838620484 Z"></path><path fill="#90ed7d" d="M 335 322.9366938482005 L 343 322.9366938482005 343 330.9366938482005 335 330.9366938482005 Z"></path><path fill="#90ed7d" d="M 325 325.00863977613943 L 333 325.00863977613943 333 333.00863977613943 325 333.00863977613943 Z"></path><path fill="#90ed7d" d="M 315 327.06666666666666 L 323 327.06666666666666 323 335.06666666666666 315 335.06666666666666 Z"></path><path fill="#90ed7d" d="M 305 329.1103394103322 L 313 329.1103394103322 313 337.1103394103322 305 337.1103394103322 Z"></path><path fill="#90ed7d" d="M 295 331.13919481193864 L 303 331.13919481193864 303 339.13919481193864 295 339.13919481193864 Z"></path><path fill="#90ed7d" d="M 285 333.1527387799806 L 293 333.1527387799806 293 341.1527387799806 285 341.1527387799806 Z"></path><path fill="#90ed7d" d="M 275 335.1504431280599 L 283 335.1504431280599 283 343.1504431280599 275 343.1504431280599 Z"></path><path fill="#90ed7d" d="M 265 337.131741918905 L 273 337.131741918905 273 345.131741918905 265 345.131741918905 Z"></path><path fill="#90ed7d" d="M 255 339.09602726618556 L 263 339.09602726618556 263 347.09602726618556 255 347.09602726618556 Z"></path><path fill="#90ed7d" d="M 245 341.04264448970946 L 253 341.04264448970946 253 349.04264448970946 245 349.04264448970946 Z"></path><path fill="#90ed7d" d="M 235 342.97088649449034 L 243 342.97088649449034 243 350.97088649449034 235 350.97088649449034 Z"></path><path fill="#90ed7d" d="M 225 344.8799872117359 L 233 344.8799872117359 233 352.8799872117359 225 352.8799872117359 Z"></path><path fill="#90ed7d" d="M 215 346.7691138974768 L 223 346.7691138974768 223 354.7691138974768 215 354.7691138974768 Z"></path><path fill="#90ed7d" d="M 205 348.637358028724 L 213 348.637358028724 213 356.637358028724 205 356.637358028724 Z"></path><path fill="#90ed7d" d="M 195 350.48372446255047 L 203 350.48372446255047 203 358.48372446255047 195 358.48372446255047 Z"></path><path fill="#90ed7d" d="M 185 352.3071184228554 L 193 352.3071184228554 193 360.3071184228554 185 360.3071184228554 Z"></path><path fill="#90ed7d" d="M 175 354.1063297417356 L 183 354.1063297417356 183 362.1063297417356 175 362.1063297417356 Z"></path><path fill="#90ed7d" d="M 165 355.8800135907669 L 173 355.8800135907669 173 363.8800135907669 165 363.8800135907669 Z"></path><path fill="#90ed7d" d="M 155 357.62666666666667 L 163 357.62666666666667 163 365.62666666666667 155 365.62666666666667 Z"></path><path fill="#90ed7d" d="M 145 359.3445974059693 L 153 359.3445974059693 153 367.3445974059693 145 367.3445974059693 Z"></path><path fill="#90ed7d" d="M 135 361.0318882306966 L 143 361.0318882306966 143 369.0318882306966 135 369.0318882306966 Z"></path><path fill="#90ed7d" d="M 125 362.68634696642613 L 133 362.68634696642613 133 370.68634696642613 125 370.68634696642613 Z"></path><path fill="#90ed7d" d="M 115 364.3054432472452 L 123 364.3054432472452 123 372.3054432472452 115 372.3054432472452 Z"></path><path fill="#90ed7d" d="M 105 365.8862236154051 L 113 365.8862236154051 113 373.8862236154051 105 373.8862236154051 Z"></path><path fill="#90ed7d" d="M 95 367.42519556460854 L 103 367.42519556460854 103 375.42519556460854 95 375.42519556460854 Z"></path><path fill="#90ed7d" d="M 85 368.91816487086777 L 93 368.91816487086777 93 376.91816487086777 85 376.91816487086777 Z"></path><path fill="#90ed7d" d="M 75 370.36 L 83 370.36 83 378.36 75 378.36 Z"></path><path fill="#90ed7d" d="M 65 371.74427744868166 L 73 371.74427744868166 73 379.74427744868166 65 379.74427744868166 Z"></path><path fill="#90ed7d" d="M 55 373.06272162362256 L 63 373.06272162362256 63 381.06272162362256 55 381.06272162362256 Z"></path><path fill="#90ed7d" d="M 45 374.30426444897097 L 53 374.30426444897097 53 382.30426444897097 45 382.30426444897097 Z"></path><path fill="#90ed7d" d="M 35 375.4533333333333 L 43 375.4533333333333 43 383.4533333333333 35 383.4533333333333 Z"></path><path fill="#90ed7d" d="M 25 376.4863608118113 L 33 376.4863608118113 33 384.4863608118113 25 384.4863608118113 Z"></path><path fill="#90ed7d" d="M 15 377.36333333333334 L 23 377.36333333333334 23 385.36333333333334 15 385.36333333333334 Z"></path><path fill="#90ed7d" d="M 5 378 L 13 378 13 386 5 386 Z"></path></g><g class="highcharts-series" visibility="visible"  transform="translate(86,60) scale(1 1)" clip-path="url(#highcharts-9)"><path fill="none" d="M 9.98019801980198 381.6816666666667 C 9.98019801980198 381.6816666666667 15.968316831683168 381.23600000000005 19.96039603960396 380.7266666666667 C 23.952475247524752 380.2173333333334 25.948514851485147 379.899 29.94059405940594 379.135 C 33.932673267326734 378.371 35.928712871287125 377.9253333333333 39.92079207920792 376.90666666666664 C 43.91287128712871 375.88800000000003 45.908910891089114 375.315 49.9009900990099 374.0416666666667 C 53.89306930693069 372.7683333333333 55.88910891089108 372.06800000000004 59.88118811881188 370.54 C 63.87326732673267 369.01200000000006 65.86930693069307 368.1843333333333 69.86138613861387 366.40166666666664 C 73.85346534653465 364.619 75.84950495049505 363.66400000000004 79.84158415841584 361.62666666666667 C 83.83366336633662 359.58933333333334 85.82970297029703 358.50699999999995 89.82178217821782 356.215 C 93.81386138613861 353.923 95.80990099009901 352.7133333333333 99.8019801980198 350.1666666666667 C 103.7940594059406 347.62 105.790099009901 346.283 109.78217821782178 343.4816666666667 C 113.77425742574258 340.6803333333333 115.77029702970296 339.21599999999995 119.76237623762376 336.15999999999997 C 123.75445544554455 333.1039999999999 125.75049504950493 331.5123333333333 129.74257425742573 328.20166666666665 C 133.73465346534653 324.89099999999996 135.73069306930694 323.17199999999997 139.72277227722773 319.6066666666667 C 143.71485148514853 316.04133333333334 145.7108910891089 314.195 149.7029702970297 310.375 C 153.6950495049505 306.55499999999995 155.6910891089109 304.58133333333336 159.68316831683168 300.50666666666666 C 163.67524752475248 296.432 165.67128712871286 294.331 169.66336633663366 290.00166666666667 C 173.65544554455445 285.6723333333333 175.65148514851484 283.444 179.64356435643563 278.86 C 183.63564356435646 274.27599999999995 185.63168316831684 271.9203333333333 189.62376237623764 267.08166666666665 C 193.61584158415843 262.24299999999994 195.61188118811884 259.76 199.6039603960396 254.66666666666666 C 203.59603960396038 249.57333333333332 205.5920792079208 246.963 209.58415841584159 241.61499999999998 C 213.57623762376238 236.26699999999997 215.57227722772276 233.52933333333328 219.56435643564356 227.92666666666665 C 223.55643564356438 222.32399999999996 225.55247524752477 219.45899999999995 229.54455445544554 213.60166666666666 C 233.53663366336633 207.74433333333332 235.53267326732671 204.75199999999998 239.5247524752475 198.64 C 243.5168316831683 192.528 245.5128712871287 189.40833333333336 249.5049504950495 183.04166666666666 C 253.4970297029703 176.675 255.49306930693064 173.42800000000003 259.48514851485146 166.80666666666664 C 263.4772277227722 160.18533333333335 265.47326732673264 156.81099999999995 269.46534653465346 149.93499999999997 C 273.4574257425743 143.05899999999997 275.4534653465347 139.55733333333325 279.44554455445547 132.42666666666665 C 283.4376237623763 125.29599999999994 285.43366336633665 121.66699999999992 289.4257425742574 114.28166666666664 C 293.41782178217824 106.89633333333325 295.4138613861386 103.14000000000006 299.4059405940594 95.5 C 303.3980198019802 87.86000000000006 305.3940594059406 83.97633333333327 309.38613861386136 76.08166666666665 C 313.3782178217822 68.18699999999993 319.36633663366337 56.02666666666664 319.36633663366337 56.02666666666664" stroke="#f7a35c" stroke-width="2"  stroke-linejoin="round" stroke-linecap="round"></path></g><g class="highcharts-markers" visibility="visible"  transform="translate(86,60) scale(1 1)" clip-path="none"><path fill="#f7a35c" d="M 319 52.02666666666664 L 323 60.02666666666664 315 60.02666666666664 Z"></path><path fill="#f7a35c" d="M 309 72.08166666666665 L 313 80.08166666666665 305 80.08166666666665 Z"></path><path fill="#f7a35c" d="M 299 91.5 L 303 99.5 295 99.5 Z"></path><path fill="#f7a35c" d="M 289 110.28166666666664 L 293 118.28166666666664 285 118.28166666666664 Z"></path><path fill="#f7a35c" d="M 279 128.42666666666665 L 283 136.42666666666665 275 136.42666666666665 Z"></path><path fill="#f7a35c" d="M 269 145.93499999999997 L 273 153.93499999999997 265 153.93499999999997 Z"></path><path fill="#f7a35c" d="M 259 162.80666666666664 L 263 170.80666666666664 255 170.80666666666664 Z"></path><path fill="#f7a35c" d="M 249 179.04166666666666 L 253 187.04166666666666 245 187.04166666666666 Z"></path><path fill="#f7a35c" d="M 239 194.64 L 243 202.64 235 202.64 Z"></path><path fill="#f7a35c" d="M 229 209.60166666666666 L 233 217.60166666666666 225 217.60166666666666 Z"></path><path fill="#f7a35c" d="M 219 223.92666666666665 L 223 231.92666666666665 215 231.92666666666665 Z"></path><path fill="#f7a35c" d="M 209 237.61499999999998 L 213 245.61499999999998 205 245.61499999999998 Z"></path><path fill="#f7a35c" d="M 199 250.66666666666666 L 203 258.66666666666663 195 258.66666666666663 Z"></path><path fill="#f7a35c" d="M 189 263.08166666666665 L 193 271.08166666666665 185 271.08166666666665 Z"></path><path fill="#f7a35c" d="M 179 274.86 L 183 282.86 175 282.86 Z"></path><path fill="#f7a35c" d="M 169 286.00166666666667 L 173 294.00166666666667 165 294.00166666666667 Z"></path><path fill="#f7a35c" d="M 159 296.50666666666666 L 163 304.50666666666666 155 304.50666666666666 Z"></path><path fill="#f7a35c" d="M 149 306.375 L 153 314.375 145 314.375 Z"></path><path fill="#f7a35c" d="M 139 315.6066666666667 L 143 323.6066666666667 135 323.6066666666667 Z"></path><path fill="#f7a35c" d="M 129 324.20166666666665 L 133 332.20166666666665 125 332.20166666666665 Z"></path><path fill="#f7a35c" d="M 119 332.15999999999997 L 123 340.15999999999997 115 340.15999999999997 Z"></path><path fill="#f7a35c" d="M 109 339.4816666666667 L 113 347.4816666666667 105 347.4816666666667 Z"></path><path fill="#f7a35c" d="M 99 346.1666666666667 L 103 354.1666666666667 95 354.1666666666667 Z"></path><path fill="#f7a35c" d="M 89 352.215 L 93 360.215 85 360.215 Z"></path><path fill="#f7a35c" d="M 79 357.62666666666667 L 83 365.62666666666667 75 365.62666666666667 Z"></path><path fill="#f7a35c" d="M 69 362.40166666666664 L 73 370.40166666666664 65 370.40166666666664 Z"></path><path fill="#f7a35c" d="M 59 366.54 L 63 374.54 55 374.54 Z"></path><path fill="#f7a35c" d="M 49 370.0416666666667 L 53 378.0416666666667 45 378.0416666666667 Z"></path><path fill="#f7a35c" d="M 39 372.90666666666664 L 43 380.90666666666664 35 380.90666666666664 Z"></path><path fill="#f7a35c" d="M 29 375.135 L 33 383.135 25 383.135 Z"></path><path fill="#f7a35c" d="M 19 376.7266666666667 L 23 384.7266666666667 15 384.7266666666667 Z"></path><path fill="#f7a35c" d="M 9 377.6816666666667 L 13 385.6816666666667 5 385.6816666666667 Z"></path></g><g class="highcharts-series" visibility="visible"  transform="translate(86,60) scale(1 1)" clip-path="url(#highcharts-9)"><path fill="none" d="M 9.98019801980198 381.6816666666667 C 9.98019801980198 381.6816666666667 15.968316831683168 381.1086666666667 19.96039603960396 379.4533333333333 C 23.952475247524752 377.798 25.948514851485147 376.97033333333326 29.94059405940594 373.405 C 33.932673267326734 369.83966666666663 35.928712871287125 367.86600000000004 39.92079207920792 361.62666666666667 C 43.91287128712871 355.38733333333334 45.908910891089114 351.8856666666666 49.9009900990099 342.2083333333333 C 53.89306930693069 332.53099999999995 55.88910891089108 327.1193333333334 59.88118811881188 313.24 C 63.87326732673267 299.3606666666667 65.86930693069307 291.65700000000004 69.86138613861387 272.81166666666667 C 73.85346534653465 253.96633333333335 75.84950495049505 243.5886666666667 79.84158415841584 219.01333333333332 C 83.83366336633662 194.43800000000002 85.82970297029703 181.00433333333325 89.82178217821782 149.93499999999997 C 93.81386138613861 118.86566666666658 99.8019801980198 63.66666666666663 99.8019801980198 63.66666666666663" stroke="#8085e9" stroke-width="2"  stroke-linejoin="round" stroke-linecap="round"></path></g><g class="highcharts-markers" visibility="visible"  transform="translate(86,60) scale(1 1)" clip-path="none"><path fill="#8085e9" d="M 95 59.66666666666663 L 103 59.66666666666663 99 67.66666666666663 Z"></path><path fill="#8085e9" d="M 85 145.93499999999997 L 93 145.93499999999997 89 153.93499999999997 Z"></path><path fill="#8085e9" d="M 75 215.01333333333332 L 83 215.01333333333332 79 223.01333333333332 Z"></path><path fill="#8085e9" d="M 65 268.81166666666667 L 73 268.81166666666667 69 276.81166666666667 Z"></path><path fill="#8085e9" d="M 55 309.24 L 63 309.24 59 317.24 Z"></path><path fill="#8085e9" d="M 45 338.2083333333333 L 53 338.2083333333333 49 346.2083333333333 Z"></path><path fill="#8085e9" d="M 35 357.62666666666667 L 43 357.62666666666667 39 365.62666666666667 Z"></path><path fill="#8085e9" d="M 25 369.405 L 33 369.405 29 377.405 Z"></path><path fill="#8085e9" d="M 15 375.4533333333333 L 23 375.4533333333333 19 383.4533333333333 Z"></path><path fill="#8085e9" d="M 5 377.6816666666667 L 13 377.6816666666667 9 385.6816666666667 Z"></path></g></g><text x="300" text-anchor="middle" class="highcharts-title"  style="color:#333333;font-size:30px;fill:#333333;width:536px;" y="36"><tspan>Time Complexity Functions</tspan></text><g class="highcharts-legend"  transform="translate(49,512)"><g ><g><g class="highcharts-legend-item"  transform="translate(8,3)"><path fill="none" d="M 0 24 L 16 24" stroke="#7cb5ec" stroke-width="2"></path><path fill="#7cb5ec" d="M 8 20 C 13.328 20 13.328 28 8 28 C 2.6719999999999997 28 2.6719999999999997 20 8 20 Z"></path><text x="21" style="color:#333333;font-size:30px;font-weight:bold;cursor:pointer;fill:#333333;" text-anchor="start"  y="33">log2(N)</text></g><g class="highcharts-legend-item"  transform="translate(162.796875,3)"><path fill="none" d="M 0 24 L 16 24" stroke="#434348" stroke-width="2"></path><path fill="#434348" d="M 8 20 L 12 24 8 28 4 24 Z"></path><text x="21" y="33" style="color:#333333;font-size:30px;font-weight:bold;cursor:pointer;fill:#333333;" text-anchor="start" >N</text></g><g class="highcharts-legend-item"  transform="translate(226.859375,3)"><path fill="none" d="M 0 24 L 16 24" stroke="#90ed7d" stroke-width="2"></path><path fill="#90ed7d" d="M 4 20 L 12 20 12 28 4 28 Z"></path><text x="21" y="33" style="color:#333333;font-size:30px;font-weight:bold;cursor:pointer;fill:#333333;" text-anchor="start" >N*log2(N)</text></g><g class="highcharts-legend-item"  transform="translate(418.703125,3)"><path fill="none" d="M 0 24 L 16 24" stroke="#f7a35c" stroke-width="2"></path><path fill="#f7a35c" d="M 8 20 L 12 28 4 28 Z"></path><text x="21" y="33" style="color:#333333;font-size:30px;font-weight:bold;cursor:pointer;fill:#333333;" text-anchor="start" >N^2</text></g><g class="highcharts-legend-item"  transform="translate(8,38)"><path fill="none" d="M 0 24 L 16 24" stroke="#8085e9" stroke-width="2"></path><path fill="#8085e9" d="M 4 20 L 12 20 8 28 Z"></path><text x="21" y="33" style="color:#333333;font-size:30px;font-weight:bold;cursor:pointer;fill:#333333;" text-anchor="start" >N^3</text></g></g></g></g><g class="highcharts-axis-labels highcharts-xaxis-labels" ><text x="86" text-anchor="middle" style="color:#606060;cursor:default;font-size:11px;fill:#606060;" y="462" opacity="1">0</text><text x="185.8019801980198" text-anchor="middle" style="color:#606060;cursor:default;font-size:11px;fill:#606060;" y="462" opacity="1">10</text><text x="285.6039603960396" text-anchor="middle" style="color:#606060;cursor:default;font-size:11px;fill:#606060;" y="462" opacity="1">20</text><text x="385.4059405940594" text-anchor="middle" style="color:#606060;cursor:default;font-size:11px;fill:#606060;" y="462" opacity="1">30</text><text x="485.2079207920792" text-anchor="middle" style="color:#606060;cursor:default;font-size:11px;fill:#606060;" y="462" opacity="1">40</text><text x="585.009900990099" text-anchor="middle" style="color:#606060;cursor:default;font-size:11px;fill:#606060;" y="462" opacity="1">50</text></g><g class="highcharts-axis-labels highcharts-yaxis-labels" ><text x="71" text-anchor="end" style="width:178px;color:#606060;cursor:default;font-size:11px;fill:#606060;" y="447.515625" opacity="1">0</text><text x="71" text-anchor="end" style="width:178px;color:#606060;cursor:default;font-size:11px;fill:#606060;" y="383.84895833333337" opacity="1">200</text><text x="71" text-anchor="end" style="width:178px;color:#606060;cursor:default;font-size:11px;fill:#606060;" y="320.18229166666663" opacity="1">400</text><text x="71" text-anchor="end" style="width:178px;color:#606060;cursor:default;font-size:11px;fill:#606060;" y="256.515625" opacity="1">600</text><text x="71" text-anchor="end" style="width:178px;color:#606060;cursor:default;font-size:11px;fill:#606060;" y="192.84895833333331" opacity="1">800</text><text x="71" text-anchor="end" style="width:178px;color:#606060;cursor:default;font-size:11px;fill:#606060;" y="129.18229166666663" opacity="1">1000</text><text x="71" text-anchor="end" style="width:178px;color:#606060;cursor:default;font-size:11px;fill:#606060;" y="65.515625" opacity="1">1200</text></g><g class="highcharts-tooltip"  style="cursor:default;padding:0;white-space:nowrap;" transform="translate(0,-9999)"><path fill="none" d="M 3 0 L 13 0 C 16 0 16 0 16 3 L 16 13 C 16 16 16 16 13 16 L 3 16 C 0 16 0 16 0 13 L 0 3 C 0 0 0 0 3 0"  stroke="black" stroke-opacity="0.049999999999999996" stroke-width="5" transform="translate(1, 1)"></path><path fill="none" d="M 3 0 L 13 0 C 16 0 16 0 16 3 L 16 13 C 16 16 16 16 13 16 L 3 16 C 0 16 0 16 0 13 L 0 3 C 0 0 0 0 3 0"  stroke="black" stroke-opacity="0.09999999999999999" stroke-width="3" transform="translate(1, 1)"></path><path fill="none" d="M 3 0 L 13 0 C 16 0 16 0 16 3 L 16 13 C 16 16 16 16 13 16 L 3 16 C 0 16 0 16 0 13 L 0 3 C 0 0 0 0 3 0"  stroke="black" stroke-opacity="0.15" stroke-width="1" transform="translate(1, 1)"></path><path fill="rgb(249, 249, 249)" fill-opacity=" .85" d="M 3 0 L 13 0 C 16 0 16 0 16 3 L 16 13 C 16 16 16 16 13 16 L 3 16 C 0 16 0 16 0 13 L 0 3 C 0 0 0 0 3 0"></path><text x="8"  style="font-size:12px;color:#333333;fill:#333333;" y="21"></text></g><text x="590" text-anchor="end"  style="cursor:pointer;color:#909090;font-size:9px;fill:#909090;" y="595">Highcharts.com</text></svg>